<svg width="280" height="53" viewBox="0 0 280 53" fill="none" xmlns="http://www.w3.org/2000/svg">
<g clip-path="url(#clip0_103_131)">
<path d="M39.9677 17.7294C38.7738 15.9283 37.2232 14.3839 35.4147 13.1948C32.8866 11.5332 29.8605 10.5635 26.6065 10.5635C17.7708 10.5635 10.6058 17.6983 10.6058 26.4996C10.6058 29.7429 11.577 32.7582 13.2478 35.2723L5.2168 43.2709L9.76982 47.8056L17.8008 39.807C20.3289 41.4685 23.3526 42.4358 26.6053 42.4358C35.441 42.4358 42.6059 35.301 42.6059 26.4996C42.6059 23.2588 41.6348 20.2448 39.9665 17.7307L39.9677 17.7294ZM26.6065 36.4328C25.0284 36.4328 23.5365 36.0688 22.2087 35.4169C20.2325 34.4496 18.6293 32.8504 17.6556 30.8822C17.0011 29.5597 16.6357 28.0714 16.6357 26.4996C16.6357 21.0139 21.0986 16.569 26.6065 16.569C28.1847 16.569 29.6802 16.933 31.0069 17.5849C32.983 18.5546 34.5887 20.1513 35.5599 22.1195C36.2144 23.442 36.5799 24.9278 36.5799 26.4996C36.5799 31.9853 32.1145 36.434 26.6053 36.434L26.6065 36.4328Z" fill="#18B36A"/>
<path d="M7.62676 27.7477C7.79071 30.2893 8.45777 32.6962 9.53408 34.8676L3.96106 40.4119C2.76711 38.4911 1.8122 36.4057 1.14139 34.1995C0.400486 31.7639 0 29.1774 0 26.5C0 19.0748 3.06747 12.3625 8.00847 7.55238C12.803 2.87935 19.3685 0 26.6073 0H35.5144L27.9227 7.55238H26.6073C16.0995 7.55238 7.58296 16.0346 7.58296 26.5C7.58296 26.9201 7.59547 27.3339 7.62676 27.7477ZM45.6316 0V26.5C45.6316 36.9654 37.1151 45.4476 26.6073 45.4476C26.1793 45.4476 25.7575 45.4327 25.3358 45.404C22.7839 45.237 20.3672 44.5701 18.1896 43.4957L12.6166 49.0437C14.5452 50.2366 16.639 51.1876 18.8541 51.8545C21.3071 52.6024 23.909 53 26.6073 53C34.0626 53 40.802 49.9449 45.6316 45.0238C50.3236 40.2486 53.2146 33.7096 53.2146 26.5V0H45.6316Z" fill="#07133B"/>
</g>
<path d="M259.343 37.7683L259.48 30.6379L272.202 18.9203H279.042L268.235 29.7296L265.225 32.2275L259.343 37.7683ZM254.692 43.1729V9.47363H260.392V43.1729H254.692ZM273.069 43.1729L264.177 32.2275L267.779 27.6858L280 43.1729H273.069Z" fill="#07133B"/>
<path d="M236.244 43.4905C233.751 43.4905 231.531 42.9606 229.586 41.9009C227.64 40.8109 226.105 39.3273 224.98 37.45C223.855 35.5728 223.293 33.4382 223.293 31.0463C223.293 28.624 223.855 26.4894 224.98 24.6425C226.105 22.7653 227.64 21.2968 229.586 20.2371C231.531 19.1773 233.751 18.6475 236.244 18.6475C238.767 18.6475 241.001 19.1773 242.947 20.2371C244.923 21.2968 246.458 22.7501 247.553 24.5971C248.677 26.444 249.24 28.5938 249.24 31.0463C249.24 33.4382 248.677 35.5728 247.553 37.45C246.458 39.3273 244.923 40.8109 242.947 41.9009C241.001 42.9606 238.767 43.4905 236.244 43.4905ZM236.244 38.6309C237.642 38.6309 238.888 38.3281 239.983 37.7225C241.077 37.117 241.928 36.2389 242.536 35.0884C243.175 33.9378 243.494 32.5904 243.494 31.0463C243.494 29.4718 243.175 28.1244 242.536 27.0042C241.928 25.8536 241.077 24.9755 239.983 24.37C238.888 23.7644 237.657 23.4616 236.289 23.4616C234.891 23.4616 233.644 23.7644 232.55 24.37C231.486 24.9755 230.635 25.8536 229.996 27.0042C229.358 28.1244 229.039 29.4718 229.039 31.0463C229.039 32.5904 229.358 33.9378 229.996 35.0884C230.635 36.2389 231.486 37.117 232.55 37.7225C233.644 38.3281 234.876 38.6309 236.244 38.6309Z" fill="#07133B"/>
<path d="M206.853 43.4915C204.36 43.4915 202.141 42.9616 200.195 41.9019C198.25 40.8119 196.714 39.3282 195.59 37.451C194.465 35.5738 193.902 33.4392 193.902 31.0472C193.902 28.625 194.465 26.4904 195.59 24.6435C196.714 22.7662 198.25 21.2978 200.195 20.238C202.141 19.1783 204.36 18.6484 206.853 18.6484C209.376 18.6484 211.611 19.1783 213.556 20.238C215.532 21.2978 217.068 22.7511 218.162 24.598C219.287 26.445 219.849 28.5947 219.849 31.0472C219.849 33.4392 219.287 35.5738 218.162 37.451C217.068 39.3282 215.532 40.8119 213.556 41.9019C211.611 42.9616 209.376 43.4915 206.853 43.4915ZM206.853 38.6318C208.251 38.6318 209.498 38.3291 210.592 37.7235C211.687 37.118 212.538 36.2399 213.146 35.0893C213.784 33.9388 214.103 32.5914 214.103 31.0472C214.103 29.4728 213.784 28.1254 213.146 27.0051C212.538 25.8546 211.687 24.9765 210.592 24.371C209.498 23.7654 208.267 23.4626 206.899 23.4626C205.5 23.4626 204.254 23.7654 203.159 24.371C202.095 24.9765 201.244 25.8546 200.606 27.0051C199.967 28.1254 199.648 29.4728 199.648 31.0472C199.648 32.5914 199.967 33.9388 200.606 35.0893C201.244 36.2399 202.095 37.118 203.159 37.7235C204.254 38.3291 205.485 38.6318 206.853 38.6318Z" fill="#07133B"/>
<path d="M182.729 43.1729V9.47363H188.429V43.1729H182.729Z" fill="#07133B"/>
<path d="M162.318 43.1727V16.3767H151.738V11.3809H178.825V16.3767H168.246V43.1727H162.318Z" fill="#18B36A"/>
<path d="M137.508 43.6259C135.015 43.6259 132.628 43.2777 130.348 42.5813C128.068 41.8547 126.259 40.9312 124.922 39.8109L126.974 35.2238C128.251 36.223 129.832 37.0556 131.716 37.7217C133.601 38.3878 135.532 38.7209 137.508 38.7209C139.18 38.7209 140.533 38.5392 141.566 38.1759C142.6 37.8126 143.36 37.3281 143.846 36.7226C144.333 36.0867 144.576 35.3752 144.576 34.588C144.576 33.6191 144.226 32.847 143.527 32.2717C142.828 31.6661 141.916 31.1968 140.791 30.8638C139.697 30.5004 138.465 30.1674 137.097 29.8646C135.76 29.5618 134.407 29.2136 133.039 28.82C131.701 28.3961 130.47 27.8663 129.345 27.2304C128.251 26.5643 127.354 25.6863 126.655 24.5963C125.955 23.5062 125.606 22.1135 125.606 20.4179C125.606 18.6921 126.062 17.1176 126.974 15.6946C127.916 14.2412 129.33 13.0907 131.215 12.2429C133.13 11.3648 135.547 10.9258 138.465 10.9258C140.381 10.9258 142.281 11.168 144.165 11.6525C146.05 12.1369 147.692 12.8333 149.09 13.7416L147.221 18.3287C145.792 17.4809 144.317 16.8602 142.797 16.4666C141.277 16.0427 139.818 15.8308 138.42 15.8308C136.778 15.8308 135.44 16.0276 134.407 16.4212C133.404 16.8148 132.659 17.3296 132.172 17.9654C131.716 18.6012 131.488 19.3279 131.488 20.1454C131.488 21.1143 131.823 21.9015 132.492 22.5071C133.191 23.0824 134.088 23.5365 135.182 23.8696C136.307 24.2026 137.553 24.5357 138.921 24.8688C140.289 25.1715 141.642 25.5197 142.98 25.9133C144.348 26.307 145.579 26.8217 146.673 27.4575C147.798 28.0934 148.695 28.9563 149.364 30.0463C150.063 31.1363 150.413 32.5139 150.413 34.1792C150.413 35.8748 149.941 37.4492 148.999 38.9026C148.087 40.3256 146.673 41.4762 144.758 42.3542C142.843 43.202 140.426 43.6259 137.508 43.6259Z" fill="#18B36A"/>
<path d="M105.353 43.6268C100.975 43.6268 97.54 42.4006 95.0472 39.9481C92.5847 37.4955 91.3535 33.953 91.3535 29.3205V11.3809H97.2816V29.0934C97.2816 32.3634 97.9808 34.7403 99.3792 36.2239C100.808 37.7075 102.815 38.4493 105.399 38.4493C107.983 38.4493 109.974 37.7075 111.372 36.2239C112.771 34.7403 113.47 32.3634 113.47 29.0934V11.3809H119.307V29.3205C119.307 33.953 118.06 37.4955 115.568 39.9481C113.105 42.4006 109.7 43.6268 105.353 43.6268Z" fill="#18B36A"/>
<path d="M72.5509 43.6271C70.5141 43.6271 68.6293 43.2334 66.8964 42.4462C65.194 41.659 63.7956 40.5236 62.7012 39.04L66.0756 34.9979C66.9572 36.209 67.9149 37.1173 68.9485 37.7229C70.0125 38.3284 71.1677 38.6312 72.4141 38.6312C75.7278 38.6312 77.3846 36.6783 77.3846 32.7724V16.3315H66.03V11.3811H83.3127V32.4545C83.3127 36.209 82.3855 39.0097 80.5311 40.8566C78.707 42.7036 76.047 43.6271 72.5509 43.6271Z" fill="#18B36A"/>
<defs>
<clipPath id="clip0_103_131">
<rect width="53.2146" height="53" fill="white"/>
</clipPath>
</defs>
</svg>
